# xmcd
#
# Track frame offsets: 
#        150
#        14606
#        32468
#        50995
#        65868
#        82686
#        106046
#        126209
#        142318
#        155369
#        170368
#        201047
#        219673
#        236889
#        255503
#
# Disc length: 3804 seconds
#
# Revision: 1
# Processed by: cddbd v1.5.2PL0 Copyright (c) Steve Scherf et al.
# Submitted via: ExactAudioCopy v1.1
#
DISCID=d60eda0f
DTITLE=Louis Armstrong&Jack Teagarden - Jazz Ballads 19, CD 1
DYEAR=1900
DGENRE=Jazz
TTITLE0=Someday (You'll be Sorry)
TTITLE1=Black And Blue
TTITLE2=I'm Confessin'
TTITLE3=Lazy River
TTITLE4=Pennies FromHeaven
TTITLE5=Rockin' Chair
TTITLE6=Save It Pretty Mama
TTITLE7=Do You Knew What It Means To Miss New Orleans
TTITLE8=Before Long
TTITLE9=Lovely Weather We're Having
TTITLE10=On The Sunny Side Of The Street
TTITLE11=You Can Depend On Me
TTITLE12=Blueberry Hill
TTITLE13=Basin Street Blues
TTITLE14=I Surrender Dear
EXTD=
EXTT0=
EXTT1=
EXTT2=
EXTT3=
EXTT4=
EXTT5=
EXTT6=
EXTT7=
EXTT8=
EXTT9=
EXTT10=
EXTT11=
EXTT12=
EXTT13=
EXTT14=
PLAYORDER=
